<?xml version="1.0" encoding="UTF-8"?>
<!-- Generated by Pixelmator Pro 3.7.1 -->
<svg width="512" height="512" viewBox="-10 -10 372 372" xmlns="http://www.w3.org/2000/svg">
    <path id="Path" fill="#1c60c3" stroke="none" d="M 60 0 L 240 0 C 273.137085 0 300 26.862915 300 60 L 300 240 C 300 273.137085 273.137085 300 240 300 L 60 300 C 26.862915 300 0 273.137085 0 240 L 0 60 C 0 26.862915 26.862915 0 60 0 Z"/>
    <path id="path1" fill="#e7000b" stroke="none" d="M 112 52 L 292 52 C 325.137085 52 352 78.862915 352 112 L 352 292 C 352 325.137085 325.137085 352 292 352 L 112 352 C 78.862915 352 52 325.137085 52 292 L 52 112 C 52 78.862915 78.862915 52 112 52 Z"/>
    <path id="path2" fill="none" stroke="#ffffff" stroke-width="42" stroke-linecap="round" stroke-linejoin="round" d="M 130 220 L 180 270 L 290 150"/>
</svg>
